<svg viewBox="0 0 200 24" xmlns="http://www.w3.org/2000/svg" fill="currentColor">
  <path d="M6.5 15.3c-.5-.8-1.4-.8-1.9 0L.4 22.5c-.5.8-.1 1.5.9 1.5h7.2c.6-1.3.1-3.9-1.1-7.5l-.9-1.2zM8.5 0C7.6 0 7 1.2 7 1.2L.1 15.2c-.6 1.1-.1 2.1.1 2.4l5.9-11.5s.8-1.4 2.4-1.4c1.6 0 2.4 1.4 2.4 1.4l5.9 11.5c.2-.3.7-1.3.1-2.4L9.9 1.2S9.4 0 8.5 0z"/>
  <path d="M28.4 17.7h3.1l-4.7-11.5h-3.1l-4.7 11.5h3.1l.9-2.4h4.5l.9 2.4zm-3.1-7.8l1.5 3.7h-2.9l1.4-3.7zM37.2 17.7h-2.9V9.5h-2.2V6.9h2.2v-.6c0-2.4 1.4-3.6 3.8-3.6.7 0 1.4.1 2 .3v2.5c-.4-.1-.8-.2-1.2-.2-.9 0-1.4.4-1.4 1.3v.3h2.5v2.6h-2.5v8.2h-.3zM42.4 17.7h2.9V2.7h-2.9v15zM54.1 6.6c-3.1 0-5.4 2.3-5.4 5.7s2.3 5.7 5.4 5.7c3.1 0 5.4-2.3 5.4-5.7s-2.3-5.7-5.4-5.7zm0 8.8c-1.5 0-2.5-1.2-2.5-3.1s1-3.1 2.5-3.1 2.5 1.2 2.5 3.1-1 3.1-2.5 3.1zM69 10.9c0-2.6-.8-4.3-3.3-4.3-1.5 0-2.5.7-3.1 1.7V6.9h-2.9v10.8h2.9v-6c0-1.5.8-2.4 2-2.4 1.2 0 1.7.8 1.7 2.2v6.2H69v-6.8zM77.6 6.6c-1.2 0-2.2.5-2.8 1.3V6.9h-2.9v10.8h2.9v-5.9c0-1.5.8-2.5 2-2.5s1.9.9 1.9 2.3v6.1h2.9v-6.7c0-2.5-1.2-4.4-4-4.4zM89.7 6.9h2.9v10.8h-2.9v-1.3c-.7.9-1.7 1.5-3.1 1.5-2.6 0-4.6-2.1-4.6-5.6s2-5.7 4.7-5.7c1.3 0 2.3.5 3 1.4V6.9zm-2.4 8.5c1.5 0 2.5-1.2 2.5-3.1s-1-3.1-2.5-3.1c-1.5 0-2.5 1.2-2.5 3.1s1 3.1 2.5 3.1zM101.3 6.6c-1.2 0-2.2.5-2.8 1.3V6.9h-2.9v10.8h2.9v-5.9c0-1.5.8-2.5 2-2.5s1.9.9 1.9 2.3v6.1h2.9v-6.7c0-2.5-1.2-4.4-4-4.4z"/>
</svg>
