<svg viewBox="0 0 100 60" xmlns="http://www.w3.org/2000/svg" fill="currentColor">
  <path d="M28.5 22.3c0 1.1.1 2 .4 2.6.3.7.6 1.4 1.1 2.2.2.3.2.5.2.7 0 .3-.2.6-.6.9l-2 1.3c-.3.2-.5.3-.7.3-.3 0-.6-.1-.9-.4-.4-.5-.8-.9-1.1-1.4-.3-.5-.6-1.1-.9-1.8-2.4 2.8-5.4 4.2-9 4.2-2.6 0-4.6-.7-6.1-2.2-1.5-1.5-2.3-3.4-2.3-5.9 0-2.6.9-4.7 2.8-6.3 1.9-1.6 4.4-2.4 7.5-2.4 1 0 2.1.1 3.3.2 1.1.2 2.3.4 3.5.7v-2.2c0-2.3-.5-4-1.4-4.9-1-.9-2.6-1.4-5-1.4-1.1 0-2.2.1-3.3.4-1.1.3-2.2.6-3.3 1.1-.5.2-.8.3-1 .4-.2.1-.4.1-.5.1-.4 0-.7-.3-.7-1V5.2c0-.5.1-.9.2-1.1.2-.2.4-.4.9-.6 1.1-.5 2.4-1 3.9-1.3 1.5-.4 3.1-.5 4.9-.5 3.7 0 6.4.8 8.2 2.5 1.7 1.7 2.6 4.2 2.6 7.7v10.1h-.1zM16.8 27.3c1 0 2-.2 3.1-.5 1.1-.4 2.1-1 2.9-1.9.5-.6.9-1.2 1-2 .2-.8.3-1.7.3-2.7v-1.3c-.9-.2-1.8-.4-2.8-.5-1-.1-1.9-.2-2.9-.2-2 0-3.5.4-4.5 1.2-1 .8-1.5 2-1.5 3.5 0 1.4.4 2.5 1.1 3.2.7.8 1.8 1.2 3.3 1.2zm24.8 3.7c-.5 0-.9-.1-1.1-.3-.2-.2-.5-.6-.6-1.2l-7.2-23.6c-.2-.6-.3-1-.3-1.2 0-.5.2-.8.8-.8h3c.6 0 .9.1 1.1.3.2.2.4.6.6 1.2l5.1 20.2 4.8-20.2c.2-.6.3-1 .5-1.2.2-.2.6-.3 1.1-.3h2.4c.6 0 .9.1 1.1.3.2.2.4.6.6 1.2l4.8 20.5L63 5.4c.2-.6.4-1 .6-1.2.2-.2.6-.3 1.1-.3h2.8c.5 0 .8.2.8.8 0 .2 0 .3-.1.5 0 .2-.1.4-.2.8l-7.4 23.6c-.2.6-.4 1-.6 1.2-.2.2-.6.3-1.1.3h-2.6c-.5 0-.9-.1-1.1-.3-.2-.2-.4-.6-.6-1.2l-4.7-19.7-4.7 19.7c-.2.6-.4 1-.6 1.2-.2.2-.6.3-1.1.3h-2.7zm39.6 1c-1.6 0-3.2-.2-4.7-.6-1.5-.4-2.7-.8-3.5-1.2-.5-.3-.9-.6-1-.9-.1-.3-.2-.6-.2-.9v-1.6c0-.7.3-1 .8-1 .2 0 .4 0 .6.1.2.1.5.2.8.4 1 .5 2.2.8 3.4 1.1 1.2.2 2.4.4 3.6.4 1.9 0 3.4-.3 4.5-1 1.1-.7 1.6-1.7 1.6-2.9 0-.9-.3-1.6-.8-2.1-.6-.6-1.6-1.1-3.1-1.6l-4.4-1.4c-2.2-.7-3.9-1.7-4.9-3.1-1-1.4-1.5-2.9-1.5-4.5 0-1.3.3-2.4.8-3.4.5-1 1.3-1.8 2.2-2.5.9-.7 2-1.2 3.2-1.6 1.2-.4 2.5-.5 3.9-.5.7 0 1.4 0 2.1.1.7.1 1.4.2 2 .3.6.1 1.2.3 1.7.5.6.2 1 .4 1.3.6.4.2.7.5.9.7.2.3.3.6.3 1.1v1.5c0 .7-.3 1-.8 1-.3 0-.7-.1-1.2-.4-1.7-.8-3.7-1.2-5.9-1.2-1.7 0-3.1.3-4.1.8-1 .6-1.5 1.5-1.5 2.7 0 .9.3 1.6.9 2.2.6.6 1.7 1.1 3.3 1.7l4.3 1.4c2.2.7 3.8 1.7 4.7 2.9.9 1.2 1.4 2.7 1.4 4.3 0 1.3-.3 2.5-.8 3.6-.5 1.1-1.3 2-2.2 2.7-1 .8-2.1 1.3-3.4 1.7-1.4.5-2.9.7-4.5.7z"/>
  <path d="M85.8 47.5C75.7 54.8 61.2 58.7 48.7 58.7c-17.6 0-33.5-6.5-45.5-17.3-1-.9-.1-2 1-1.4 13 7.5 29 12.1 45.5 12.1 11.2 0 23.5-2.3 34.8-7.1 1.7-.7 3.2 1.2 1.3 2.5z"/>
  <path d="M89.8 42.9c-1.3-1.6-8.5-.8-11.8-.4-1 .1-1.1-.7-.3-1.4 5.8-4 15.2-2.9 16.3-1.5 1.1 1.4-.3 10.8-5.7 15.4-.8.7-1.6.3-1.3-.6 1.2-3 4-9.9 2.8-11.5z"/>
</svg>
