<svg viewBox="0 0 100 30" xmlns="http://www.w3.org/2000/svg" fill="currentColor">
  <path d="M14.7 0C6.6 0 0 6.6 0 14.7s6.6 14.7 14.7 14.7 14.7-6.6 14.7-14.7S22.8 0 14.7 0zm-1.2 22.3c-3.8 0-6.9-3.1-6.9-6.9s3.1-6.8 6.9-6.8c.7 0 1.5.1 2.1.3l-.9 2.8c-.4-.1-.8-.2-1.2-.2-2.2 0-4.1 1.8-4.1 4.1 0 2.2 1.8 4.1 4.1 4.1 1.3 0 2.4-.6 3.2-1.5l2.1 1.9c-1.3 1.4-3.2 2.2-5.3 2.2z"/>
  <path d="M42.6 11.5c-.3 0-.5.1-.7.2-.3.2-.4.5-.4.8l.1 1c.2 1.7-.7 2.8-2.2 2.8-.5 0-.9-.1-1.3-.3.2-.3.3-.7.3-1.1 0-1.4-1.2-2.6-2.6-2.6s-2.6 1.2-2.6 2.6 1.2 2.6 2.6 2.6c.3 0 .6-.1.9-.2.5.6 1.3 1 2.3 1 .5 0 1-.1 1.5-.3.5-.2.8-.5 1.1-.8l.1.8h1.9v-6.5h-1zM49.9 11.5c-2 0-3.6 1.5-3.6 3.5s1.6 3.5 3.6 3.5c2 0 3.6-1.5 3.6-3.5s-1.6-3.5-3.6-3.5zm0 5.3c-1 0-1.7-.8-1.7-1.8s.7-1.8 1.7-1.8 1.7.8 1.7 1.8-.7 1.8-1.7 1.8zM60 11.5c-1 0-1.8.5-2.3 1.2v-.9h-1.9v6.5h2v-3.6c0-.9.5-1.5 1.3-1.5s1.2.5 1.2 1.3v3.8h2v-4.2c0-1.6-.9-2.6-2.3-2.6zM68.2 18.3h-1.8l-2.5-6.5h2.1l1.4 4.1 1.4-4.1H71l-2.8 6.5zM77.5 11.5c-.3 0-.5.1-.7.2-.3.2-.4.5-.4.8l.1 1c.2 1.7-.7 2.8-2.2 2.8-.5 0-.9-.1-1.3-.3.2-.3.3-.7.3-1.1 0-1.4-1.2-2.6-2.6-2.6s-2.6 1.2-2.6 2.6 1.2 2.6 2.6 2.6c.3 0 .6-.1.9-.2.5.6 1.3 1 2.3 1 .5 0 1-.1 1.5-.3.5-.2.8-.5 1.1-.8l.1.8h1.9v-6.5h-1z"/>
</svg>
