<svg viewBox="0 0 120 24" xmlns="http://www.w3.org/2000/svg" fill="currentColor">
  <path d="M6.7 5.1C4.5 5.1 2.7 7 1.5 9.8c-1.5 3.5-1.9 7.6-.2 10.3 1 1.6 2.7 2.5 4.7 2.5 1.6 0 3.2-.7 4.8-2.3.7-.7 1.4-1.5 2-2.5l.4.5c1.8 2.7 4 4.3 6.7 4.3 2 0 3.7-.9 4.7-2.5 1.7-2.8 1.3-6.8-.2-10.3C23 7 21.1 5.1 18.9 5.1c-2.7 0-5 1.7-6.7 4.4l-.3.5-.4-.5c-1.6-2.7-3.9-4.4-6.7-4.4h1.9zm.1 2.4c1.8 0 3.4 1.3 4.7 3.4l1.4 2.2 1.4-2.2c1.3-2.1 2.9-3.4 4.7-3.4 1.4 0 2.6 1.3 3.5 3.5 1.2 2.9 1.5 6.1.4 7.9-.5.9-1.4 1.4-2.5 1.4-1.6 0-3.2-1.2-4.7-3.4l-1.4-2.2-1.4 2.2c-1.5 2.3-3.1 3.4-4.7 3.4-1.1 0-2-.5-2.5-1.4-1.1-1.8-.8-5 .4-7.9.9-2.2 2.1-3.5 3.5-3.5h-.8zM41 5.3c-4 0-6.3 2.6-6.3 6.9 0 4.5 2.4 7.1 6.5 7.1 2.5 0 4.4-1 5.6-2.9l-2-1.3c-.8 1.2-2 1.9-3.5 1.9-2.1 0-3.4-1.3-3.7-3.6h9.7v-1.1c0-4.6-2.4-7-6.3-7zm-3.4 5.8c.3-2.1 1.5-3.4 3.4-3.4 1.8 0 3 1.2 3.2 3.4h-6.6zM56.8 5.6h-4.2v4h-2.2v2.2h2.2v5.6c0 2.6 1.5 4 4.2 4 .8 0 1.5-.1 2.2-.4v-2.4c-.5.2-1 .3-1.6.3-1.2 0-1.8-.6-1.8-1.8v-5.3h3.4V9.6h-3.4V5.6h1.2zM68 5.3c-1.6 0-3 .7-3.9 1.9V5.6h-2.8v13.5h2.9v-7c0-2.4 1.2-3.9 3.2-3.9 1 0 1.7.3 2.3.9l1.4-2.5c-.9-.8-2-1.3-3.1-1.3zM82.3 5.3c-4.1 0-6.8 2.7-6.8 6.9 0 4.2 2.7 7.1 6.6 7.1 2.2 0 4-.8 5.2-2.3l-1.8-1.6c-.8 1-2 1.5-3.4 1.5-2 0-3.5-1.1-3.9-3h9.8c0-.5.1-1 .1-1.5 0-4.3-2.5-7.1-5.8-7.1zm-3.9 5.6c.4-1.9 1.7-3.2 3.8-3.2 2 0 3.2 1.2 3.5 3.2h-7.3z"/>
</svg>
