<svg viewBox="0 0 318 69" xmlns="http://www.w3.org/2000/svg" fill="currentColor">
  <path d="M0 0h32.8v32.8H0zm35.6 0h32.8v32.8H35.6zM0 35.6h32.8v32.8H0zm35.6 0h32.8v32.8H35.6z"/>
  <path d="M88.7 14.4h6.7v41.3h-6.7V26.2l-12 20.6h-.4l-12.1-20.4v29.3h-6.5V14.4h6.8l11.7 20.5 12.5-20.5zM102.8 19.2c0-2.3 1.9-4.1 4.3-4.1 2.4 0 4.3 1.8 4.3 4.1s-1.9 4.1-4.3 4.1c-2.4 0-4.3-1.8-4.3-4.1zm1 7.9h6.5v28.6h-6.5V27.1zM133.2 55.7c-8.4 0-14.1-6.2-14.1-14.9 0-8.6 5.8-14.9 14.2-14.9 5.4 0 9.1 2.3 11.2 5.7l-5.3 3.2c-1.4-2.2-3.4-3.4-6.1-3.4-4.4 0-7.5 3.5-7.5 9.4 0 6 3.2 9.4 7.6 9.4 2.5 0 4.8-1.1 6.1-3.5l5.3 3.1c-2.2 3.4-5.9 5.9-11.4 5.9zM163.3 26.3v6.1c-1-.2-1.8-.3-2.7-.3-4.6 0-7.5 2.7-7.5 8.3v15.3h-6.5V27.1h6.2v4.6c1.6-3.2 4.6-5.4 8.9-5.4h1.6zM165.9 40.8c0-8.7 6.4-14.9 15-14.9s15 6.2 15 14.9c0 8.7-6.4 14.9-15 14.9s-15-6.2-15-14.9zm23.5 0c0-5.7-3.4-9.4-8.5-9.4s-8.5 3.7-8.5 9.4c0 5.7 3.4 9.4 8.5 9.4s8.5-3.7 8.5-9.4zM200.9 48.3l4.8-3.5c1.7 2.8 4.4 4.5 7.9 4.5 3.2 0 5.1-1.4 5.1-3.5 0-2.4-2.6-3.1-6.8-4.4-5.2-1.6-10.1-3.6-10.1-9.7 0-5.4 4.7-9.3 11.3-9.3 5.6 0 9.5 2.5 11.7 6l-4.7 3.5c-1.5-2.4-3.8-3.8-7-3.8-2.9 0-4.7 1.4-4.7 3.3 0 2.2 2 3 6.2 4.3 5.5 1.6 10.8 3.4 10.8 9.8 0 5.6-4.5 9.6-12 9.6-6.2.1-10.9-2.6-12.5-6.8zM229.3 40.8c0-8.7 6.4-14.9 15-14.9s15 6.2 15 14.9c0 8.7-6.4 14.9-15 14.9s-15-6.2-15-14.9zm23.5 0c0-5.7-3.4-9.4-8.5-9.4s-8.5 3.7-8.5 9.4c0 5.7 3.4 9.4 8.5 9.4s8.5-3.7 8.5-9.4zM282.7 15.1v40.6h-6.2v-3.5c-2 2.7-5.2 4.3-9.1 4.3-7.5 0-13.2-6.3-13.2-14.8 0-8.5 5.7-14.8 13.2-14.8 3.8 0 6.9 1.5 8.9 4v-15.8h6.4zm-6.3 25.7c0-5.6-3.5-9.3-8.3-9.3-4.8 0-8.3 3.7-8.3 9.3s3.5 9.3 8.3 9.3c4.8 0 8.3-3.7 8.3-9.3zM308.9 55.7c-5.1 0-8.4-2.7-8.4-8.4V32h-5.2v-4.9h5.2V19h6.5v8.1h7.9V32h-7.9v14.7c0 2.6 1.4 3.9 3.8 3.9 1.5 0 2.9-.3 4.2-.9v5.4c-1.6.6-3.5 1.1-6.1 1.1z"/>
</svg>
