<svg viewBox="0 0 168 50" xmlns="http://www.w3.org/2000/svg" fill="currentColor">
  <path d="M25 0C11.2 0 0 11.2 0 25s11.2 25 25 25 25-11.2 25-25S38.8 0 25 0zm11.5 36.1c-.4.7-1.4 1-2.2.5-5.9-3.6-13.3-4.4-22-2.4-.8.2-1.7-.3-1.9-1.2-.2-.8.3-1.7 1.2-1.9 9.5-2.2 17.7-1.2 24.4 2.8.7.5.9 1.5.5 2.2zm3.1-6.8c-.6.9-1.8 1.2-2.7.6-6.7-4.1-17-5.3-25-2.9-1 .3-2.1-.3-2.5-1.3-.3-1 .3-2.1 1.3-2.5 9.1-2.8 20.4-1.4 28.2 3.4 1 .5 1.3 1.8.7 2.7zm.3-7.1c-8.1-4.8-21.4-5.2-29.1-2.9-1.2.4-2.5-.3-2.9-1.6-.4-1.2.3-2.5 1.6-2.9 8.9-2.7 23.6-2.2 32.9 3.3 1.1.7 1.5 2.1.8 3.2-.6 1.1-2.1 1.5-3.3.9z"/>
  <path d="M83.8 23c-4-1-4.8-1.6-4.8-3 0-1.3 1.2-2.1 2.9-2.1 1.7 0 3.3.6 5 1.9l.2.1.1-.2 1.8-2.6.1-.1-.1-.1c-2-1.7-4.3-2.5-7-2.5-4 0-6.7 2.4-6.7 5.8 0 3.6 2.4 4.9 6.9 6 4 .9 4.7 1.7 4.7 3 0 1.4-1.3 2.3-3.3 2.3-2.2 0-4.1-.8-5.9-2.4l-.2-.1-.1.1-1.9 2.4-.1.2.1.1c2.3 2.1 5.1 3.2 8.1 3.2 4.3 0 7-2.3 7-5.9 0-3.1-1.8-4.8-6.7-5.9zM100.6 14.8c-5.4 0-9.6 4.3-9.6 9.8 0 5.4 4.2 9.7 9.5 9.7s9.6-4.3 9.6-9.8c0-5.4-4.2-9.7-9.5-9.7zm0 15.3c-3 0-5.3-2.4-5.3-5.5s2.3-5.6 5.3-5.6 5.3 2.5 5.3 5.6-2.3 5.5-5.3 5.5zM120.7 14.8c-2.2 0-4 .9-5.4 2.7v-2.1h-4.1V41h4.3v-9.4c1.4 1.7 3.2 2.5 5.4 2.5 4 0 8.1-3.1 8.1-8.5s-4.1-10.8-8.3-10.8zm3.8 9.6c0 3-1.9 5.2-4.6 5.2s-4.7-2.2-4.7-5.2 2-5.2 4.7-5.2 4.6 2.2 4.6 5.2zM140.2 14.8c-5.4 0-9.6 4.3-9.6 9.8 0 5.4 4.2 9.7 9.5 9.7s9.6-4.3 9.6-9.8c0-5.4-4.2-9.7-9.5-9.7zm0 15.3c-3 0-5.3-2.4-5.3-5.5s2.3-5.6 5.3-5.6 5.3 2.5 5.3 5.6-2.3 5.5-5.3 5.5zM159.8 15.3h-4v-4.8h-4.3v4.8h-2.4v3.6h2.4v8.4c0 3.8 1.5 5.6 5.4 5.6 1.1 0 2.1-.2 3-.6v-3.6c-.6.2-1.2.4-1.9.4-1.4 0-2.2-.7-2.2-2.1v-8.1h4.3v-3.6h-.3z"/>
  <path d="M167.2 17.7c0-.8-.6-1.4-1.4-1.4s-1.4.6-1.4 1.4.6 1.4 1.4 1.4 1.4-.6 1.4-1.4zm-2.5 0c0-.6.5-1.1 1.1-1.1s1.1.5 1.1 1.1-.5 1.1-1.1 1.1-1.1-.5-1.1-1.1zm.7.8h-.3v-1.5h.6c.2 0 .3 0 .4.1.1.1.2.2.2.3 0 .2-.1.3-.3.4l.3.7h-.4l-.3-.6h-.2v.6zm0-.9h.2c.2 0 .3-.1.3-.2s-.1-.2-.3-.2h-.2v.4z"/>
</svg>
