<svg viewBox="0 0 278 40" xmlns="http://www.w3.org/2000/svg" fill="currentColor">
  <path d="M238.1 14.5v25.3h7.5V14.5h11.6V7.6h-30.6v6.9h11.5zM34.3 7.6H0v6.9h13.4v25.3h7.5V14.5h13.4V7.6zM54.8 14.5v25.3h7.5V26h16.3v-6.5H62.3v-5h20.6V7.6H54.8v6.9zM107.2 33.3c-3.6 0-6-1.5-6-5.3V7.6h-7.5v20.4c0 8 5.4 12.2 13.5 12.2 8.1 0 13.5-4.2 13.5-12.2V7.6h-7.5V28c0 3.8-2.4 5.3-6 5.3zM171.4 7.6h-7.5v32.2h24.8v-6.9h-17.3V7.6zM199.3 7.6h7.5v32.2h-7.5zM221.7 7.6h-7.5l16.4 32.2h8.2l-17.1-32.2z"/>
  <path d="M139.2 0C127.9 0 118.7 3.3 118.7 9.9c0 .3 0 .5.1.8l3.8 29.1h7.6l-3.4-26c1.2-.7 6.3-3.3 12.4-3.3 6.1 0 11.2 2.6 12.4 3.3l-3.4 26h7.6l3.8-29.1c0-.3.1-.5.1-.8 0-6.6-9.2-9.9-20.5-9.9z"/>
</svg>
